<svg width="14" height="14" viewBox="0 0 256 271" fill="none" xmlns="http://www.w3.org/2000/svg">
<g clip-path="url(#clip0_241_97)">
<path d="M256 45.179L246.756 190.337L158.373 0L256 45.179ZM194.783 232.876L128.001 270.981L61.217 232.876L74.8 199.958H181.2L194.783 232.876ZM128.001 72.249L162.995 157.325H93.005L128.001 72.249ZM9.149 190.337L0 45.179L97.627 0L9.149 190.337Z" fill="url(#paint0_linear_241_97)"/>
<path d="M256 45.179L246.756 190.337L158.373 0L256 45.179ZM194.783 232.876L128.001 270.981L61.217 232.876L74.8 199.958H181.2L194.783 232.876ZM128.001 72.249L162.995 157.325H93.005L128.001 72.249ZM9.149 190.337L0 45.179L97.627 0L9.149 190.337Z" fill="url(#paint1_linear_241_97)"/>
</g>
<defs>
<linearGradient id="paint0_linear_241_97" x1="6418.18" y1="24640" x2="25013.5" y2="15803.4" gradientUnits="userSpaceOnUse">
<stop stop-color="#E40035"/>
<stop offset="0.24" stop-color="#F60A48"/>
<stop offset="0.352" stop-color="#F20755"/>
<stop offset="0.494" stop-color="#DC087D"/>
<stop offset="0.745" stop-color="#9717E7"/>
<stop offset="1" stop-color="#6C00F5"/>
</linearGradient>
<linearGradient id="paint1_linear_241_97" x1="5596.93" y1="3267.49" x2="18312.9" y2="17772.7" gradientUnits="userSpaceOnUse">
<stop stop-color="#FF31D9"/>
<stop offset="1" stop-color="#FF5BE1" stop-opacity="0"/>
</linearGradient>
<clipPath id="clip0_241_97">
<rect width="256" height="271" fill="white"/>
</clipPath>
</defs>
</svg>
