<svg width="14" height="14" fill="none" xmlns="http://www.w3.org/2000/svg"><path d="M4.685 14a2.334 2.334 0 0 0 2.333-2.333V9.333H4.685a2.334 2.334 0 0 0 0 4.667z" fill="#0ACF83"/><path d="M2.352 7a2.334 2.334 0 0 1 2.333-2.333h2.333v4.666H4.685A2.334 2.334 0 0 1 2.352 7z" fill="#A259FF"/><path d="M2.352 2.333A2.334 2.334 0 0 1 4.685 0h2.333v4.667H4.685a2.334 2.334 0 0 1-2.333-2.334z" fill="#F24E1E"/><path d="M7.018 0h2.334a2.334 2.334 0 0 1 0 4.667H7.018V0z" fill="#FF7262"/><path d="M11.685 7a2.334 2.334 0 1 1-4.668-.002A2.334 2.334 0 0 1 11.685 7z" fill="#1ABCFE"/></svg>