<svg width="14" height="14" fill="none" xmlns="http://www.w3.org/2000/svg"><g clip-path="url(#a)"><path fill-rule="evenodd" clip-rule="evenodd" d="M1.944 12.6.82 0h12.345L12.04 12.598 6.985 14l-5.041-1.4z" fill="#E44D26"/><path fill-rule="evenodd" clip-rule="evenodd" d="m6.993 12.929 4.085-1.133.96-10.766H6.994V12.93z" fill="#F16529"/><path d="M4.948 5.704h2.045v1.545H3.534l-.417-4.673h3.876V4.12H4.806l.142 1.583zM6.986 9.719l.007-.002v1.608l-.008.002-3.165-.879-.217-2.426h1.552l.11 1.232 1.72.465z" fill="#EBEBEB"/><path d="M6.987 2.576h3.872L10.72 4.12H6.987V2.576zM6.987 7.249V5.704h3.593l-.038.415-.386 4.33-3.169.877V9.718l1.724-.465.18-2.004H6.986z" fill="#fff"/></g><defs><clipPath id="a"><path fill="#fff" d="M0 0h14v14H0z"/></clipPath></defs></svg>