<svg viewBox="0 0 25 24" fill="none" xmlns="http://www.w3.org/2000/svg"><path d="M16.68 7a1 1 0 1 1 2.001.001A1 1 0 0 1 16.68 7z" fill="#000"/><path fill-rule="evenodd" clip-rule="evenodd" d="M12.675 7.25A4.753 4.753 0 0 0 7.92 12a4.753 4.753 0 0 0 4.755 4.75A4.753 4.753 0 0 0 17.431 12a4.753 4.753 0 0 0-4.756-4.75zM9.422 12a3.252 3.252 0 0 1 3.253-3.25A3.252 3.252 0 0 1 15.93 12a3.252 3.252 0 0 1-3.254 3.25A3.252 3.252 0 0 1 9.422 12z" fill="#000"/><path fill-rule="evenodd" clip-rule="evenodd" d="M17.94 2.833a47.826 47.826 0 0 0-10.529 0c-2.014.225-3.64 1.81-3.877 3.832a45.87 45.87 0 0 0 0 10.67c.237 2.022 1.863 3.607 3.877 3.832 3.47.387 7.058.387 10.528 0 2.015-.225 3.64-1.81 3.878-3.832a45.87 45.87 0 0 0 0-10.67c-.237-2.022-1.863-3.607-3.878-3.832zM7.577 4.323a46.322 46.322 0 0 1 10.195 0c1.331.15 2.398 1.199 2.552 2.517a44.377 44.377 0 0 1 0 10.32c-.154 1.318-1.22 2.368-2.552 2.516-3.36.375-6.835.375-10.195 0-1.331-.148-2.398-1.198-2.552-2.516a44.373 44.373 0 0 1 0-10.32c.154-1.318 1.22-2.368 2.552-2.516z" fill="#000"/></svg>