<svg width="14" height="14" fill="none" xmlns="http://www.w3.org/2000/svg"><g clip-path="url(#a)" fill-rule="evenodd" clip-rule="evenodd"><path d="M.164.164h13.672v13.672H.164V.164z" fill="#F7DF1E"/><path d="m3.759 11.59 1.046-.634c.202.358.386.66.826.66.422 0 .688-.164.688-.807V6.441h1.285v4.386c0 1.331-.78 1.937-1.918 1.937-1.028 0-1.624-.532-1.927-1.175M8.302 11.452l1.046-.606c.276.45.633.78 1.267.78.532 0 .871-.266.871-.633 0-.44-.348-.597-.936-.854l-.32-.137c-.928-.395-1.543-.89-1.543-1.937 0-.963.735-1.698 1.882-1.698.817 0 1.404.285 1.826 1.028l-1 .643c-.22-.395-.46-.551-.826-.551-.377 0-.615.239-.615.55 0 .386.239.542.79.78l.32.138c1.092.468 1.707.946 1.707 2.02 0 1.156-.908 1.789-2.129 1.789-1.193 0-1.964-.569-2.34-1.312" fill="#000"/></g><defs><clipPath id="a"><path fill="#fff" d="M0 0h14v14H0z"/></clipPath></defs></svg>