<svg width="14" height="14" fill="none" xmlns="http://www.w3.org/2000/svg"><g clip-path="url(#a)"><path fill-rule="evenodd" clip-rule="evenodd" d="M7.012 13.81a1.1 1.1 0 0 1-.526-.137l-1.668-.99c-.25-.139-.125-.189-.05-.214.339-.113.401-.138.752-.338.038-.026.088-.013.126.012l1.279.765c.05.025.112.025.15 0l5.002-2.896c.05-.025.076-.075.076-.138v-5.78c0-.062-.026-.112-.076-.138L7.075 1.074c-.05-.025-.113-.025-.15 0L1.922 3.957c-.05.025-.075.087-.075.137v5.78c0 .05.025.113.075.138l1.367.79c.74.376 1.203-.063 1.203-.502V4.596c0-.075.063-.15.15-.15h.64c.076 0 .15.062.15.15V10.3c0 .99-.538 1.567-1.479 1.567-.288 0-.514 0-1.153-.313l-1.316-.752a1.058 1.058 0 0 1-.527-.916v-5.78c0-.375.2-.726.527-.914L6.486.296c.313-.176.74-.176 1.053 0l5.002 2.896c.326.188.527.539.527.915v5.78c0 .376-.2.727-.527.915L7.54 13.698a1.282 1.282 0 0 1-.527.113zm1.542-3.974c-2.194 0-2.645-1.003-2.645-1.855 0-.075.063-.15.15-.15h.653c.075 0 .137.05.137.125.1.664.39.99 1.718.99 1.053 0 1.504-.238 1.504-.802 0-.326-.125-.564-1.767-.727-1.367-.138-2.22-.44-2.22-1.53 0-1.015.853-1.617 2.282-1.617 1.605 0 2.395.552 2.495 1.755a.202.202 0 0 1-.037.113c-.025.025-.063.05-.1.05h-.653a.147.147 0 0 1-.137-.113c-.15-.69-.54-.915-1.568-.915-1.153 0-1.29.401-1.29.702 0 .364.162.477 1.717.677 1.542.2 2.269.49 2.269 1.567-.013 1.104-.915 1.73-2.508 1.73z" fill="#539E43"/></g><defs><clipPath id="a"><path fill="#fff" d="M0 0h14v14H0z"/></clipPath></defs></svg>