<svg width="14" height="14" viewBox="0 0 256 256" fill="none" xmlns="http://www.w3.org/2000/svg"><g clip-path="url(#a)"><path d="M128 256c70.692 0 128-57.308 128-128C256 57.308 198.692 0 128 0 57.308 0 0 57.307 0 128c0 70.692 57.307 128 128 128z" fill="#05930C"/><path d="m38.903 36.1 180.833 181.166C196.483 241.16 163.974 256 128 256 57.308 256 0 198.692 0 128c0-36.06 14.91-68.636 38.903-91.9z" fill="#fff" fill-opacity=".1"/><path d="M121.72 174.2a59.113 59.113 0 0 1-28 5.92 44.923 44.923 0 0 1-34.44-13.84 51.12 51.12 0 0 1-12.92-36.36 53.555 53.555 0 0 1 14.56-39.08A49.4 49.4 0 0 1 97.96 76a59.201 59.201 0 0 1 23.76 4v12.6a48.003 48.003 0 0 0-24-6.04 36.68 36.68 0 0 0-28 11.6 43.72 43.72 0 0 0-10.8 31A41.598 41.598 0 0 0 69 158.52a34.324 34.324 0 0 0 26.48 10.92 49.674 49.674 0 0 0 26.28-6.76l-.04 11.52zm89.32-68.36-1.6 7.44h-18.4l-4.4 21.12h19.76l-1.88 7.44h-19.36l-6.2 28h-8.84l6.04-28h-17.6l-5.92 28H144l5.92-28h-18.56l1.4-7.44h18.64l4.28-21.08H136.2l1.48-7.44h19.48l5.92-28.28H172l-5.92 28.28h17.72l6.04-28.28h8.64l-5.92 28.28 18.48-.04zm-28.68 7.44H164.6L160 134.4h17.84l4.52-21.12z" fill="#fff"/></g><defs><clipPath id="a"><path fill="#fff" d="M0 0h256v256H0z"/></clipPath></defs></svg>