<svg width="14" height="14" fill="none" xmlns="http://www.w3.org/2000/svg"><path fill-rule="evenodd" clip-rule="evenodd" d="M1.944 12.6.82 0h12.345l-1.124 12.598L6.985 14l-5.041-1.4z" fill="#0071BC"/><path fill-rule="evenodd" clip-rule="evenodd" d="m7.003 12.928 4.08-1.122.956-10.757H7.003v11.879z" fill="#29ABE2"/><path fill-rule="evenodd" clip-rule="evenodd" d="m3.392 5.679.135 1.543 3.476-1.543V4.133L3.392 5.68z" fill="#B3B3B3"/><path fill-rule="evenodd" clip-rule="evenodd" d="m10.853 2.483-3.85 1.65V5.68l3.717-1.653.133-1.543zM7.003 9.716l-.012.002-1.724-.463-.112-1.23H3.603l.217 2.424 3.17.878.013-.003V9.716z" fill="#E6E6E6"/><path fill-rule="evenodd" clip-rule="evenodd" d="M7.003 5.679v1.543H8.89L8.72 9.239l-1.716.479v1.607l3.16-.878.417-4.768H7.003z" fill="#fff"/><path fill-rule="evenodd" clip-rule="evenodd" d="M7.003 5.679H3.392l.135 1.543h3.476V5.679zM7.003 4.026V2.483H3.117l.137 1.543h3.75z" fill="#E6E6E6"/><path fill-rule="evenodd" clip-rule="evenodd" d="M7.003 2.483v1.544h3.717l.133-1.544h-3.85z" fill="#fff"/></svg>