<svg width="14" height="14" fill="none" xmlns="http://www.w3.org/2000/svg"><path fill-rule="evenodd" clip-rule="evenodd" d="M6.99.166s4.006-.18 6.13 3.848H6.65s-1.222-.04-2.265 1.442c-.3.622-.622 1.263-.26 2.525-.521-.882-2.766-4.79-2.766-4.79S2.941.325 6.99.166z" fill="#EF3F36"/><path fill-rule="evenodd" clip-rule="evenodd" d="M12.913 10.39s-1.85 3.561-6.397 3.385L9.753 8.17s.646-1.037-.117-2.682C9.25 4.917 8.853 4.319 7.58 4c1.024-.01 5.53 0 5.53 0s1.687 2.804-.197 6.39z" fill="#FCD900"/><path fill-rule="evenodd" clip-rule="evenodd" d="M1.094 10.418s-2.16-3.38.268-7.232L4.597 8.79s.577 1.08 2.381 1.24c.688-.05 1.403-.093 2.317-1.035-.504.891-2.765 4.788-2.765 4.788s-3.274.06-5.436-3.365z" fill="#61BC5B"/><path fill-rule="evenodd" clip-rule="evenodd" d="m6.514 13.809.91-3.799s1-.079 1.84-.998c-.521.916-2.75 4.797-2.75 4.797z" fill="#5AB055"/><path fill-rule="evenodd" clip-rule="evenodd" d="M3.94 7.03a3.033 3.033 0 1 1 6.066 0 3.033 3.033 0 0 1-6.066 0z" fill="#fff"/><path fill-rule="evenodd" clip-rule="evenodd" d="M4.448 7.03a2.525 2.525 0 1 1 5.05 0 2.525 2.525 0 0 1-5.05 0z" fill="url(#a)"/><path fill-rule="evenodd" clip-rule="evenodd" d="m13.107 4.002-3.748 1.1s-.566-.83-1.781-1.1c1.054-.005 5.53 0 5.53 0z" fill="#EACA05"/><path fill-rule="evenodd" clip-rule="evenodd" d="M4.05 7.843C3.524 6.93 1.358 3.19 1.358 3.19l2.777 2.746s-.285.587-.178 1.426l.093.48z" fill="#DF3A32"/><defs><linearGradient id="a" x1="4.541" y1="4.54" x2="4.541" y2="9.403" gradientUnits="userSpaceOnUse"><stop stop-color="#86BBE5"/><stop offset="1" stop-color="#1072BA"/></linearGradient></defs></svg>