<svg width="14" height="14" viewBox="0 0 256 255" fill="none" xmlns="http://www.w3.org/2000/svg"><g clip-path="url(#a)"><path d="M126.916.072c-64.832 0-60.784 28.115-60.784 28.115l.072 29.128h61.868v8.745H41.631S.145 61.355.145 126.77c0 65.417 36.21 63.097 36.21 63.097h21.61v-30.356s-1.165-36.21 35.632-36.21h61.362s34.475.557 34.475-33.319V33.97S194.67.072 126.916.072zM92.802 19.66a11.12 11.12 0 0 1 11.13 11.13 11.124 11.124 0 0 1-11.13 11.13 11.12 11.12 0 0 1-11.13-11.13 11.121 11.121 0 0 1 11.13-11.13z" fill="url(#b)"/><path d="M128.757 254.126c64.832 0 60.784-28.115 60.784-28.115l-.072-29.127H127.6v-8.745h86.441s41.486 4.705 41.486-60.712c0-65.416-36.21-63.096-36.21-63.096h-21.61v30.355s1.165 36.21-35.632 36.21h-61.362s-34.475-.557-34.475 33.32v56.013s-5.235 33.897 62.518 33.897m34.114-19.586a11.125 11.125 0 0 1-10.285-6.869 11.125 11.125 0 0 1-.845-4.261 11.124 11.124 0 0 1 3.257-7.874 11.108 11.108 0 0 1 7.873-3.257 11.125 11.125 0 0 1 10.285 6.869c.559 1.351.846 2.799.845 4.261a11.125 11.125 0 0 1-11.13 11.131z" fill="url(#c)"/></g><defs><linearGradient id="b" x1="2454.36" y1="2285.14" x2="15110.3" y2="14814.8" gradientUnits="userSpaceOnUse"><stop stop-color="#387EB8"/><stop offset="1" stop-color="#366994"/></linearGradient><linearGradient id="c" x1="3688.66" y1="3970.32" x2="17279.7" y2="16818.4" gradientUnits="userSpaceOnUse"><stop stop-color="#FFE052"/><stop offset="1" stop-color="#FFC331"/></linearGradient><clipPath id="a"><path fill="#fff" d="M0 0h256v255H0z"/></clipPath></defs></svg>