<svg width="14" height="14" fill="none" xmlns="http://www.w3.org/2000/svg"><g clip-path="url(#a)"><path d="M11.51 5.39a9.812 9.812 0 0 0-.45-.132c.026-.098.049-.194.07-.288.34-1.55.118-2.799-.644-3.21-.73-.394-1.925.017-3.13 1a9.168 9.168 0 0 0-.35.299 8.344 8.344 0 0 0-.232-.2C5.51 1.808 4.243 1.365 3.482 1.777c-.73.396-.946 1.57-.639 3.039.03.141.065.286.104.434-.18.047-.353.098-.518.152C.947 5.886 0 6.644 0 7.43c0 .812 1.016 1.627 2.56 2.12.122.04.248.076.379.111-.043.16-.08.316-.11.468-.293 1.444-.065 2.59.663 2.982.752.406 2.013-.01 3.242-1.016.097-.08.194-.164.292-.252.126.114.253.222.378.323 1.19.959 2.365 1.346 3.092.952.751-.407.995-1.638.678-3.136a6.939 6.939 0 0 0-.084-.35c.089-.025.176-.05.26-.077C12.957 9.058 14 8.253 14 7.43c0-.789-.977-1.552-2.49-2.04zm-.347 3.634a8.287 8.287 0 0 1-.235.069 12.645 12.645 0 0 0-.71-1.66c.28-.563.51-1.114.682-1.636.143.039.282.08.416.123 1.296.417 2.086 1.035 2.086 1.51 0 .507-.853 1.164-2.24 1.594zm-.575 1.066c.14.663.16 1.262.067 1.73-.083.42-.251.701-.458.813-.442.24-1.385-.071-2.403-.89a8.413 8.413 0 0 1-.352-.301 13.32 13.32 0 0 0 1.174-1.395 14.843 14.843 0 0 0 1.896-.274c.028.108.054.214.076.317zm-5.815 2.502c-.431.143-.774.147-.982.035-.442-.239-.625-1.159-.375-2.394.029-.14.063-.286.102-.434.574.118 1.209.204 1.887.255.387.51.793.98 1.202 1.39-.09.08-.178.157-.267.23-.543.444-1.087.76-1.567.918zm-2.02-3.571c-.682-.218-1.246-.502-1.632-.812C.773 7.93.598 7.654.598 7.43c0-.477.76-1.086 2.028-1.5.153-.05.314-.097.482-.141.175.533.405 1.09.682 1.655-.281.572-.514 1.139-.691 1.678a7.732 7.732 0 0 1-.346-.101zm.677-4.313c-.263-1.259-.088-2.208.352-2.446.468-.254 1.504.108 2.595 1.015.07.058.14.119.21.182-.406.408-.808.874-1.192 1.381-.659.057-1.289.149-1.868.272a7.745 7.745 0 0 1-.097-.404zm6.04 1.396c-.14-.224-.281-.443-.426-.656.446.053.874.123 1.276.21a11.5 11.5 0 0 1-.448 1.128 19.173 19.173 0 0 0-.403-.682zM7.006 3.859c.276.28.552.592.824.93a18.822 18.822 0 0 0-1.655 0c.272-.336.55-.647.83-.93zM4.528 6.108c-.138.224-.27.45-.395.677a11.858 11.858 0 0 1-.445-1.134c.4-.083.826-.152 1.27-.204-.148.215-.291.435-.43.66zm.442 3.345c-.458-.048-.89-.113-1.29-.194.124-.374.276-.762.454-1.157a16.395 16.395 0 0 0 .836 1.351zm2.053 1.588a12.809 12.809 0 0 1-.842-.944 22.429 22.429 0 0 0 1.664-.002c-.273.346-.548.664-.822.946zm2.855-2.96c.187.4.345.786.47 1.153-.406.087-.844.157-1.306.209a19.365 19.365 0 0 0 .836-1.361zm-.924.415a18.2 18.2 0 0 1-.672 1.014c-.415.028-.845.043-1.282.043-.436 0-.86-.013-1.268-.038A15.417 15.417 0 0 1 4.45 7.443a15.613 15.613 0 0 1 1.274-2.068 17.971 17.971 0 0 1 2.552 0 17.997 17.997 0 0 1 1.278 2.06c-.18.351-.382.707-.6 1.061zm1.233-6.25c.47.252.652 1.273.357 2.611-.019.085-.04.172-.063.26a15.236 15.236 0 0 0-1.872-.276 13.347 13.347 0 0 0-1.183-1.383c.107-.097.215-.189.322-.276 1.033-.842 2-1.174 2.44-.937zM7 6.26c.69 0 1.25.524 1.25 1.17 0 .646-.56 1.17-1.25 1.17s-1.25-.524-1.25-1.17c0-.646.56-1.17 1.25-1.17z" fill="#00D8FF"/></g><defs><clipPath id="a"><path fill="#fff" transform="translate(0 .895)" d="M0 0h14v13.104H0z"/></clipPath></defs></svg>