<svg width="14" height="14" fill="none" xmlns="http://www.w3.org/2000/svg"><path fill-rule="evenodd" clip-rule="evenodd" d="M13.736 6.376 7.623.264a.902.902 0 0 0-1.275 0L5.08 1.534l1.61 1.61a1.07 1.07 0 0 1 1.356 1.365L9.597 6.06a1.071 1.071 0 0 1 1.108 1.772 1.073 1.073 0 0 1-1.75-1.167L7.506 5.218v3.808a1.073 1.073 0 1 1-.882-.031V5.151a1.073 1.073 0 0 1-.582-1.407L4.455 2.157.265 6.348a.902.902 0 0 0 0 1.276l6.112 6.112a.902.902 0 0 0 1.275 0l6.084-6.084a.902.902 0 0 0 0-1.276z" fill="#DE4C36"/></svg>