<svg viewBox="0 0 25 24" fill="none" xmlns="http://www.w3.org/2000/svg"><path fill-rule="evenodd" clip-rule="evenodd" d="M15.749 3.344c.509-.088 1.079-.117 1.615-.026a4.858 4.858 0 0 1 2.542 1.273 4 4 0 0 0 1.305-.208 5.374 5.374 0 0 0 1.098-.5l.01-.007a.752.752 0 0 1 1.043 1.037c-.208.315-.496.877-.82 1.507l-.155.301c-.185.36-.375.724-.553 1.036-.111.196-.23.395-.35.567v.274a12.32 12.32 0 0 1-.925 4.778 12.34 12.34 0 0 1-6.768 6.743 12.364 12.364 0 0 1-4.784.912 12.343 12.343 0 0 1-6.701-1.97.75.75 0 0 1 .5-1.375c.3.038.603.056.906.055a7.488 7.488 0 0 0 3.131-.696 4.87 4.87 0 0 1-2.612-2.923.75.75 0 0 1 .156-.733 4.847 4.847 0 0 1-1.624-3.595V9.742a.75.75 0 0 1 .554-.724 4.836 4.836 0 0 1-.514-2.177c0-.857.224-1.699.65-2.442a.75.75 0 0 1 1.235-.1 10.9 10.9 0 0 0 7.013 3.93 4.844 4.844 0 0 1 2.565-4.406c.402-.214.935-.385 1.483-.478zM4.459 10.89a3.349 3.349 0 0 0 2.505 2.164.75.75 0 0 1 .072 1.453c-.273.083-.552.14-.835.173a3.363 3.363 0 0 0 2.593 1.3.75.75 0 0 1 .45 1.34 8.983 8.983 0 0 1-3.552 1.694 10.84 10.84 0 0 0 3.317.516h.009a10.862 10.862 0 0 0 7.776-3.165 10.839 10.839 0 0 0 3.188-7.76v-.535a.75.75 0 0 1 .186-.495c.07-.079.191-.261.36-.56.161-.282.339-.622.524-.981l.034-.066a5.004 5.004 0 0 1-1.595.097.751.751 0 0 1-.471-.237 3.355 3.355 0 0 0-1.906-1.032 3.428 3.428 0 0 0-1.111.025 3.61 3.61 0 0 0-1.03.323 3.351 3.351 0 0 0-1.68 3.74.75.75 0 0 1-.767.925 12.417 12.417 0 0 1-8.158-3.627 3.406 3.406 0 0 0-.063.657v.002a3.337 3.337 0 0 0 1.488 2.785A.75.75 0 0 1 5.356 11a4.817 4.817 0 0 1-.898-.109z" fill="#000"/></svg>