<svg width="14" height="14" fill="none" xmlns="http://www.w3.org/2000/svg"><g clip-path="url(#a)"><mask id="b" style="mask-type:alpha" maskUnits="userSpaceOnUse" x="0" y="0" width="14" height="14"><path d="M9.889 13.814c.22.086.47.08.692-.026l2.871-1.382a.871.871 0 0 0 .493-.785V2.253a.872.872 0 0 0-.493-.786L10.581.086a.868.868 0 0 0-.99.169L4.093 5.269 1.7 3.452a.58.58 0 0 0-.742.033l-.768.698a.581.581 0 0 0 0 .86l2.076 1.894L.189 8.83a.581.581 0 0 0 .001.86l.768.698a.58.58 0 0 0 .742.033l2.394-1.818L9.59 13.62a.867.867 0 0 0 .299.195zm.572-10.043-4.17 3.166 4.17 3.166V3.77z" fill="#fff"/></mask><g mask="url(#b)"><path d="M13.46 1.47 10.587.086a.869.869 0 0 0-.991.169L.19 8.83a.581.581 0 0 0 0 .86l.769.698c.207.188.519.202.742.033l11.327-8.593a.577.577 0 0 1 .926.46v-.034a.872.872 0 0 0-.494-.785z" fill="#0065A9"/><path d="m13.46 12.404-2.873 1.383a.869.869 0 0 1-.991-.168L.19 5.043a.581.581 0 0 1 0-.86l.769-.698a.581.581 0 0 1 .742-.033l11.327 8.593c.38.288.926.017.926-.46v.034c0 .335-.192.64-.494.785z" fill="#007ACC"/><path d="M10.578 13.789a.869.869 0 0 1-.991-.17.51.51 0 0 0 .872-.36V.616a.51.51 0 0 0-.872-.36.87.87 0 0 1 .991-.17l2.873 1.382c.302.146.494.45.494.786v9.368c0 .335-.192.64-.494.785l-2.873 1.382z" fill="#1F9CF0"/><path d="M9.889 13.814c.22.086.47.08.692-.026l2.87-1.382a.872.872 0 0 0 .494-.786V2.253a.872.872 0 0 0-.493-.786L10.581.086a.868.868 0 0 0-.99.168L4.093 5.27 1.7 3.452a.58.58 0 0 0-.742.033l-.768.698a.581.581 0 0 0 0 .86l2.076 1.894L.189 8.83a.581.581 0 0 0 .001.86l.768.698a.58.58 0 0 0 .742.033l2.394-1.818L9.59 13.62c.087.087.19.152.299.195zm.572-10.043-4.17 3.166 4.17 3.165V3.771z" fill="url(#c)" fill-opacity=".25"/></g></g><defs><linearGradient id="c" x1="6.973" y1="0" x2="6.973" y2="13.873" gradientUnits="userSpaceOnUse"><stop stop-color="#fff"/><stop offset="1" stop-color="#fff" stop-opacity="0"/></linearGradient><clipPath id="a"><path fill="#fff" d="M0 0h14v13.891H0z"/></clipPath></defs></svg>