<svg width="14" height="14" viewBox="0 0 256 256" fill="none" xmlns="http://www.w3.org/2000/svg">
<path d="M36.987 200.406C35.4872 201.688 33.6612 202.528 31.7122 202.835C29.7633 203.141 27.7676 202.9 25.947 202.14L6.56 194.006C4.62634 193.199 2.97305 191.841 1.80643 190.101C0.639813 188.361 0.0115361 186.315 0 184.22L0 70.4601C0.0113401 68.3648 0.639526 66.3192 1.80616 64.5787C2.97278 62.8382 4.62618 61.4798 6.56 60.6731L25.947 52.6731C27.7675 51.9128 29.7631 51.6722 31.7121 51.9782C33.6611 52.2841 35.4871 53.1246 36.987 54.4061L41.333 58.0061C40.4516 57.3724 39.4122 56.9945 38.3296 56.914C37.247 56.8336 36.1632 57.0538 35.1978 57.5503C34.2323 58.0468 33.4229 58.8003 32.8586 59.7278C32.2943 60.6552 31.9972 61.7205 32 62.8061V191.873C31.9972 192.959 32.2943 194.024 32.8586 194.951C33.4229 195.879 34.2323 196.632 35.1978 197.129C36.1632 197.625 37.247 197.846 38.3296 197.765C39.4122 197.685 40.4516 197.307 41.333 196.673L36.987 200.406Z" fill="#52218A"/>
<path d="M6.56 194.006C4.62634 193.199 2.97305 191.841 1.80643 190.101C0.639813 188.36 0.0115361 186.315 0 184.22L0 183.34C0.0131401 184.571 0.394975 185.77 1.09623 186.782C1.79748 187.795 2.78597 188.573 3.93413 189.018C5.08228 189.463 6.33741 189.554 7.53754 189.278C8.73767 189.003 9.82771 188.374 10.667 187.473L176 4.67295C178.341 2.34319 181.347 0.795174 184.603 0.241386C187.859 -0.312402 191.207 0.15518 194.187 1.57995L246.933 26.966C249.65 28.2723 251.943 30.3196 253.547 32.8721C255.151 35.4245 256.001 38.3783 256 41.393V42.006C255.998 40.0935 255.454 38.2208 254.43 36.6054C253.406 34.99 251.946 33.6982 250.217 32.8801C248.488 32.0619 246.563 31.751 244.665 31.9833C242.767 32.2157 240.973 32.982 239.493 34.193L41.333 196.673L36.987 200.406C35.4872 201.688 33.6612 202.528 31.7122 202.834C29.7633 203.141 27.7676 202.9 25.947 202.14L6.56 194.006Z" fill="#6C33AF"/>
<path d="M6.56 60.6729C4.62618 61.4796 2.97278 62.838 1.80616 64.5785C0.639526 66.319 0.0113401 68.3646 0 70.4599L0 71.3399C0.0129434 70.1086 0.394637 68.9094 1.09582 67.8971C1.79699 66.8848 2.78547 66.1059 3.93367 65.6609C5.08187 65.2159 6.33708 65.1253 7.5373 65.4007C8.73752 65.6761 9.82765 66.3049 10.667 67.2059L176 250.006C178.341 252.336 181.346 253.884 184.603 254.438C187.859 254.992 191.207 254.525 194.187 253.1L246.933 227.713C249.65 226.407 251.943 224.359 253.547 221.807C255.151 219.254 256.001 216.301 256 213.286V212.673C255.998 214.585 255.454 216.458 254.43 218.073C253.406 219.689 251.946 220.981 250.217 221.799C248.488 222.617 246.563 222.928 244.665 222.696C242.767 222.463 240.973 221.697 239.493 220.486L41.333 58.0059L36.987 54.2729C35.4737 53.0133 33.6414 52.1971 31.6928 51.9147C29.7443 51.6323 27.7556 51.8948 25.947 52.6729L6.56 60.6729Z" fill="#854CC7"/>
<path d="M194.187 253.1C191.207 254.525 187.859 254.992 184.603 254.438C181.346 253.884 178.341 252.336 176 250.006C177.314 251.31 178.985 252.197 180.802 252.554C182.619 252.912 184.501 252.724 186.211 252.014C187.921 251.304 189.384 250.104 190.414 248.566C191.444 247.027 191.996 245.218 192 243.366V11.366C192.006 9.50971 191.462 7.69332 190.436 6.14642C189.41 4.59951 187.948 3.39153 186.236 2.67518C184.523 1.95884 182.637 1.76629 180.815 2.12188C178.993 2.47748 177.317 3.36524 176 4.67295C178.341 2.34319 181.347 0.795174 184.603 0.241386C187.859 -0.312402 191.207 0.15518 194.187 1.57995L246.933 26.94C249.65 28.2462 251.942 30.2934 253.547 32.8456C255.151 35.3979 256.001 38.3514 256 41.366V213.313C256.001 216.328 255.151 219.281 253.547 221.834C251.943 224.386 249.65 226.434 246.933 227.74L194.187 253.1Z" fill="#B179F1"/>
<path d="M183.707 254.273C187.233 255.078 190.927 254.664 194.187 253.1L246.933 227.74C249.65 226.434 251.943 224.386 253.547 221.834C255.151 219.281 256.001 216.328 256 213.313V41.366C256.001 38.3515 255.151 35.398 253.547 32.8457C251.942 30.2934 249.65 28.2462 246.933 26.94L194.187 1.58001C190.455 -0.214304 186.172 -0.491746 182.24 0.806009C179.888 1.59397 177.752 2.91781 176 4.67301L90.987 98.7L41.333 58.006L36.987 54.273C35.6796 53.1553 34.1214 52.3703 32.4451 51.985C30.7688 51.5997 29.0242 51.6254 27.36 52.06C26.8728 52.1677 26.399 52.3287 25.947 52.54L6.56 60.673C4.74545 61.4223 3.17287 62.6578 2.01543 64.2434C0.857984 65.8291 0.160576 67.7034 0 69.66L0 185.02C0.160422 186.977 0.857784 188.851 2.01526 190.436C3.17273 192.022 4.7454 193.257 6.56 194.006L25.947 202.006C26.399 202.217 26.8728 202.378 27.36 202.486C30.738 203.368 34.333 202.542 36.987 200.273L41.333 196.673L90.987 155.98L176 250.006C178.119 252.121 180.789 253.6 183.707 254.273ZM192 73.153L125.893 127.34L192 181.526V73.153ZM32 90.726L65.093 127.34L32 163.953V90.726Z" fill="url(#paint0_linear_242_106)" fill-opacity="0.25"/>
<defs>
<linearGradient id="paint0_linear_242_106" x1="12800" y1="0.509348" x2="12800" y2="25467.4" gradientUnits="userSpaceOnUse">
<stop stop-color="white"/>
<stop offset="1" stop-color="white" stop-opacity="0"/>
</linearGradient>
</defs>
</svg>
