<svg width="14" height="14" viewBox="0 0 256 256" fill="none" xmlns="http://www.w3.org/2000/svg">
<g clip-path="url(#clip0_242_100)">
<path d="M34.507 231.36L0 26.8269L63.813 0.346924L104.56 24.5599L141.893 4.42692L219.68 34.2929L176.053 256L34.507 231.36Z" fill="url(#paint0_linear_242_100)"/>
<path d="M256 86.693L222.96 5.093L163.013 0L70.48 88.907L95.387 203.493L141.893 236.107L256 168.4L228 115.893L256 86.693Z" fill="url(#paint1_linear_242_100)"/>
<path d="M204.72 74.5329L228 115.893L256 86.6929L235.44 35.8669L204.72 74.5329Z" fill="url(#paint2_linear_242_100)"/>
<path d="M48 48H208V208H48V48Z" fill="black"/>
<path d="M67.947 177.76H127.947V187.76H67.947V177.76ZM124.747 67.9199L115.813 102.933L105.6 67.9199H95.44L85.2 102.933L76.293 67.9199H62.293L79.44 127.947H90.693L100.507 93.1999L110.213 127.947H121.6L138.72 67.9199H124.747ZM141.227 119.627L149.04 110.027C153.948 114.559 160.335 117.155 167.013 117.333C172.347 117.333 175.707 115.2 175.707 111.653V111.493C175.707 109.594 175.042 108.223 172.649 106.923L172.267 106.723L171.857 106.525C171.785 106.491 171.713 106.458 171.641 106.425L171.187 106.227C171.108 106.193 171.029 106.16 170.949 106.127L170.449 105.929L169.918 105.729C169.825 105.695 169.733 105.662 169.64 105.629L169.06 105.429L168.757 105.327L168.127 105.123L167.46 104.917C167.344 104.882 167.229 104.847 167.113 104.813L166.393 104.603L165.635 104.389L164.84 104.173L164.005 103.952L162.4 103.536L161.256 103.229L160.508 103.022L159.774 102.812L159.054 102.597L158.347 102.38L157.653 102.158L156.973 101.931C156.862 101.893 156.75 101.855 156.639 101.816L155.981 101.581L155.338 101.34L154.709 101.092L154.095 100.837C153.994 100.794 153.894 100.751 153.794 100.707L153.203 100.44L152.627 100.165C147.045 97.4169 143.738 93.3689 143.629 85.8269L143.627 85.2529C143.627 74.4609 152.217 67.2729 164.307 67.1229L164.693 67.1199C172.808 66.9763 180.717 69.6846 187.04 74.7729L180.16 84.7469C175.664 81.23 170.205 79.1652 164.507 78.8269C159.44 78.8269 156.773 81.1469 156.773 84.1599V84.3469C156.773 86.7489 157.761 88.2029 160.863 89.5739L161.319 89.7699C161.477 89.8349 161.639 89.8999 161.806 89.9639L162.324 90.1589L162.872 90.3549L163.452 90.5509L164.063 90.7499L164.709 90.9499L165.388 91.1529L166.471 91.4649L167.238 91.6779L168.041 91.8949L169.76 92.3469C170.044 92.4209 170.325 92.4969 170.603 92.5719L171.429 92.8019C171.566 92.8399 171.701 92.8789 171.836 92.9179L172.636 93.1539L173.417 93.3959L174.182 93.6429L174.928 93.8949L175.656 94.1549L176.013 94.2859L176.713 94.5559C184.437 97.6009 188.726 101.988 188.851 110.063L188.853 110.587C188.853 122.533 179.733 129.254 166.747 129.254C157.346 129.291 148.261 125.863 141.227 119.627Z" fill="white"/>
</g>
<defs>
<linearGradient id="paint0_linear_242_100" x1="9643.07" y1="499.126" x2="16142.9" y2="23902.9" gradientUnits="userSpaceOnUse">
<stop offset="0.28" stop-color="#07C3F2"/>
<stop offset="0.94" stop-color="#087CFA"/>
</linearGradient>
<linearGradient id="paint1_linear_242_100" x1="6204.33" y1="3560.02" x2="16051" y2="17998.7" gradientUnits="userSpaceOnUse">
<stop offset="0.14" stop-color="#FCF84A"/>
<stop offset="0.37" stop-color="#07C3F2"/>
</linearGradient>
<linearGradient id="paint2_linear_242_100" x1="2482.37" y1="2041.16" x2="3890.34" y2="7027.57" gradientUnits="userSpaceOnUse">
<stop offset="0.28" stop-color="#07C3F2"/>
<stop offset="0.94" stop-color="#087CFA"/>
</linearGradient>
<clipPath id="clip0_242_100">
<rect width="256" height="256" fill="white"/>
</clipPath>
</defs>
</svg>
